<?xml version="1.0" standalone="no"?>
<!DOCTYPE svg PUBLIC "-//W3C//DTD SVG 20010904//EN"
 "http://www.w3.org/TR/2001/REC-SVG-20010904/DTD/svg10.dtd">
<svg version="1.0" xmlns="http://www.w3.org/2000/svg"
 width="500.000000pt" height="500.000000pt" viewBox="0 0 500.000000 500.000000"
 preserveAspectRatio="xMidYMid meet">
<metadata>
Created by potrace 1.14, written by Peter Selinger 2001-2017
</metadata>
<g transform="translate(0.000000,500.000000) scale(0.100000,-0.100000)"
fill="#000000" stroke="none">
<path d="M2275 4991 c-2 -4 -21 -7 -42 -5 -21 1 -42 -1 -48 -4 -5 -4 -19 -7
-30 -8 -11 -1 -42 -5 -70 -9 -27 -4 -60 -9 -72 -10 -11 -2 -30 -6 -42 -10 -18
-5 -42 -11 -86 -19 -5 -1 -16 -5 -22 -9 -7 -5 -13 -6 -13 -3 0 3 -23 -3 -52
-14 -28 -10 -55 -17 -59 -14 -4 2 -10 0 -14 -6 -4 -6 -10 -8 -15 -5 -5 3 -11
1 -15 -5 -3 -5 -15 -10 -26 -10 -10 0 -19 -4 -19 -8 0 -5 -7 -9 -15 -10 -8 -1
-22 -3 -30 -4 -8 -1 -15 -5 -15 -9 0 -4 -10 -9 -23 -13 -13 -3 -58 -21 -100
-41 -43 -19 -80 -34 -83 -34 -4 0 -10 -3 -13 -8 -3 -4 -35 -23 -71 -42 -36
-19 -67 -37 -70 -40 -3 -3 -26 -17 -52 -31 -27 -13 -48 -28 -48 -32 0 -5 -5
-8 -11 -8 -5 0 -45 -25 -87 -56 -77 -57 -87 -65 -130 -104 -12 -11 -24 -20
-26 -20 -2 0 -35 -29 -72 -65 -38 -36 -72 -65 -76 -65 -3 0 -10 -9 -13 -21 -4
-11 -9 -18 -12 -15 -4 3 -16 -8 -28 -24 -12 -16 -25 -27 -28 -23 -4 3 -7 -1
-7 -10 0 -8 -3 -17 -7 -19 -10 -4 -113 -124 -113 -131 0 -3 -14 -21 -30 -39
-17 -18 -30 -36 -30 -39 0 -9 -79 -127 -98 -147 -6 -7 -12 -22 -12 -33 0 -10
-5 -19 -10 -19 -6 0 -15 -12 -20 -26 -6 -15 -19 -39 -30 -54 -11 -15 -17 -30
-13 -34 3 -3 1 -6 -5 -6 -7 0 -11 -3 -10 -7 1 -5 -11 -35 -27 -68 -16 -33 -30
-62 -30 -65 -1 -3 -9 -23 -19 -45 -10 -22 -19 -44 -20 -50 -3 -10 -7 -22 -22
-60 -9 -23 -6 -16 -27 -85 -9 -30 -18 -59 -18 -65 -1 -5 -6 -21 -11 -35 -5
-14 -12 -36 -15 -50 -5 -27 -6 -31 -16 -70 -15 -57 -30 -148 -31 -192 -1 -21
-3 -38 -7 -38 -20 0 -16 -540 6 -650 3 -14 7 -45 10 -69 3 -23 7 -46 9 -50 4
-5 13 -54 21 -106 2 -11 4 -20 5 -20 1 0 3 -7 5 -15 9 -35 24 -87 33 -117 6
-17 8 -34 4 -37 -3 -3 0 -6 6 -6 7 0 12 -8 12 -19 0 -10 7 -36 16 -57 32 -77
37 -89 40 -99 1 -5 16 -40 33 -77 17 -38 32 -71 32 -75 1 -5 9 -19 18 -33 9
-14 28 -46 41 -72 13 -27 27 -48 32 -48 5 0 7 -4 3 -9 -3 -5 -1 -12 5 -16 6
-4 8 -11 5 -16 -4 -5 -1 -9 5 -9 5 0 18 -16 27 -35 9 -19 20 -35 25 -35 4 0 8
-7 8 -15 0 -9 7 -18 15 -21 8 -4 13 -10 10 -14 -3 -4 2 -10 10 -14 8 -3 15
-12 15 -19 0 -8 10 -22 22 -31 13 -9 16 -14 8 -10 -18 9 63 -89 178 -215 17
-19 32 -39 32 -44 0 -4 4 -5 10 -2 5 3 10 -1 10 -9 0 -9 3 -16 8 -16 4 0 32
-24 63 -53 103 -97 229 -197 247 -197 6 0 15 -6 19 -13 9 -15 143 -100 223
-143 30 -16 57 -31 60 -35 5 -5 38 -21 50 -23 3 -1 25 -11 50 -22 127 -60 137
-64 168 -66 6 -1 12 -4 12 -8 0 -4 21 -13 48 -20 26 -7 52 -16 57 -19 6 -3 15
-6 20 -7 29 -6 111 -29 115 -34 3 -3 14 -6 25 -7 11 -1 31 -5 45 -8 61 -16
107 -26 135 -30 17 -2 30 -4 30 -5 0 -1 11 -3 25 -5 14 -2 45 -6 70 -10 66 -9
492 -16 486 -7 -2 4 28 8 68 10 130 4 156 7 156 15 0 5 5 5 10 2 6 -3 10 -2
10 4 0 7 8 7 24 1 14 -5 26 -5 28 0 2 4 17 11 33 14 17 3 50 10 75 17 25 6 50
12 55 13 6 1 15 5 21 8 6 4 24 10 40 13 16 3 34 7 41 9 7 1 16 5 19 9 4 4 13
7 20 7 7 0 23 4 36 9 13 5 28 10 33 11 6 1 19 7 30 13 11 6 22 12 25 12 24 2
243 104 251 117 3 5 9 9 13 9 8 -1 110 52 151 79 17 11 40 25 53 31 12 7 22
16 22 21 0 4 7 8 15 8 8 0 15 4 15 9 0 5 8 12 18 15 10 4 27 14 38 24 10 9 37
30 59 47 22 16 45 36 52 45 7 8 13 12 13 8 0 -4 27 19 60 51 33 32 60 57 60
55 0 -2 8 4 18 14 11 9 18 19 17 22 -3 9 33 39 39 33 3 -4 6 -1 6 5 0 6 16 26
35 45 19 19 35 37 35 41 0 4 12 19 28 34 15 15 38 43 52 61 29 40 76 102 88
116 4 6 17 26 28 45 18 33 24 41 52 75 7 8 10 15 6 15 -4 0 0 8 9 18 10 10 14
22 10 25 -3 4 -2 7 3 7 5 0 23 26 39 57 17 32 34 61 38 64 5 3 9 9 8 12 0 6
17 45 69 162 20 45 30 76 29 89 0 5 3 12 8 15 7 5 25 53 38 101 17 62 27 98
32 110 4 8 8 22 9 30 5 34 15 84 18 89 2 3 7 22 10 41 3 19 8 46 11 60 3 14 7
41 9 60 2 19 7 62 12 95 16 111 9 485 -11 615 -3 19 -7 52 -9 73 -2 21 -6 41
-10 44 -3 4 -6 19 -6 35 0 15 -3 28 -8 28 -4 0 -8 12 -9 28 -1 15 -3 34 -6 42
-2 8 -7 29 -12 45 -4 17 -10 34 -13 40 -4 5 -7 16 -8 25 -4 26 -9 45 -15 55
-7 11 -20 64 -17 67 1 2 -5 14 -12 28 -8 14 -15 30 -16 35 -1 6 -10 28 -20 50
-10 22 -18 42 -19 45 -1 3 -11 26 -23 53 -12 26 -21 50 -21 54 0 3 -3 9 -8 12
-10 8 -46 78 -44 86 1 4 -7 15 -18 24 -11 10 -19 20 -16 23 4 4 -19 43 -75
128 -72 111 -171 238 -247 318 -29 30 -53 57 -53 59 0 3 -7 11 -15 19 -8 9
-15 14 -15 11 0 -2 -27 22 -61 55 -33 32 -65 58 -70 58 -6 0 -7 5 -4 10 3 6 1
10 -5 10 -6 0 -17 6 -24 13 -7 6 -28 23 -46 37 -18 14 -49 37 -67 52 -19 15
-43 30 -54 33 -10 4 -19 11 -19 16 0 5 -8 13 -17 16 -10 4 -24 13 -31 20 -8 7
-17 11 -22 8 -4 -3 -10 2 -14 10 -3 8 -12 15 -20 15 -8 0 -16 4 -18 8 -4 10
-55 38 -206 112 -122 60 -160 76 -257 108 -27 9 -52 19 -55 22 -3 3 -12 7 -20
9 -8 2 -19 4 -25 6 -5 1 -25 6 -43 10 -18 4 -35 12 -38 16 -3 5 -10 7 -15 4
-5 -4 -14 -3 -21 1 -7 4 -24 9 -38 10 -14 2 -54 9 -90 17 -36 9 -92 18 -125
22 -33 4 -76 9 -95 12 -58 8 -480 11 -485 4z"/>
</g>
</svg>
